<svg xmlns="http://www.w3.org/2000/svg" xmlns:xlink="http://www.w3.org/1999/xlink" width="2000" zoomAndPan="magnify" viewBox="0 0 1500 1499.999933" height="2000" preserveAspectRatio="xMidYMid meet" version="1.0"><defs><g/><clipPath id="6f995f6931"><path d="M 511 850 L 1087 850 L 1087 1026 L 511 1026 Z M 511 850 " clip-rule="nonzero"/></clipPath><clipPath id="52fb886b15"><path d="M 547.933594 770.625 L 1087.203125 851.15625 L 1049.429688 1104.101562 L 510.160156 1023.570312 Z M 547.933594 770.625 " clip-rule="nonzero"/></clipPath><clipPath id="d620795a30"><path d="M 547.933594 770.625 L 1087.203125 851.15625 L 1049.429688 1104.101562 L 510.160156 1023.570312 Z M 547.933594 770.625 " clip-rule="nonzero"/></clipPath><clipPath id="946287681a"><rect x="0" width="813" y="0" height="639"/></clipPath><clipPath id="52a5f855da"><path d="M 302 494 L 582 494 L 582 757 L 302 757 Z M 302 494 " clip-rule="nonzero"/></clipPath><clipPath id="4b1539f36c"><path d="M 276.40625 520.382812 L 556.675781 472.988281 L 598.941406 722.941406 L 318.671875 770.335938 Z M 276.40625 520.382812 " clip-rule="nonzero"/></clipPath><clipPath id="0fdd512fc3"><path d="M 276.40625 520.382812 L 556.675781 472.988281 L 598.941406 722.941406 L 318.671875 770.335938 Z M 276.40625 520.382812 " clip-rule="nonzero"/></clipPath><clipPath id="28494a4b17"><rect x="0" width="283" y="0" height="244"/></clipPath></defs><g clip-path="url(#6f995f6931)"><g clip-path="url(#52fb886b15)"><g clip-path="url(#d620795a30)"><path fill="#000000" d="M 513.703125 1009.996094 C 525.027344 995.640625 970.867188 822.945312 1086.566406 853.757812 C 967.695312 862.746094 670.589844 965.285156 577.152344 1015.773438 C 583.566406 1016.136719 592.148438 1015.703125 603.960938 1013.964844 C 600.414062 1020.039062 567.480469 1024.828125 552.941406 1025.363281 C 529.539062 1026.886719 503.6875 1022.695312 513.695312 1010.058594 Z M 513.703125 1009.996094 " fill-opacity="1" fill-rule="nonzero"/></g></g></g><g transform="matrix(1, 0, 0, 1, 367, 424)"><g clip-path="url(#946287681a)"><g fill="#000000" fill-opacity="1"><g transform="translate(85.122695, 517.906594)"><g><path d="M 175.96875 -274.125 C 178.164062 -273.3125 180.570312 -271.628906 183.1875 -269.078125 C 185.800781 -266.523438 186.460938 -263.757812 185.171875 -260.78125 C 179.441406 -248.394531 174.316406 -232.804688 169.796875 -214.015625 C 165.273438 -195.222656 161.507812 -175.359375 158.5 -154.421875 C 155.488281 -133.492188 153.453125 -113.378906 152.390625 -94.078125 C 151.328125 -74.785156 151.351562 -58.253906 152.46875 -44.484375 C 153.59375 -30.722656 156.023438 -21.617188 159.765625 -17.171875 C 160.617188 -16.378906 160.097656 -15.753906 158.203125 -15.296875 C 156.941406 -14.992188 154.539062 -15.253906 151 -16.078125 C 147.457031 -16.898438 145.101562 -17.671875 143.9375 -18.390625 C 137.4375 -23.191406 132.566406 -30.628906 129.328125 -40.703125 C 126.085938 -50.785156 124.035156 -62.15625 123.171875 -74.8125 C 122.304688 -87.476562 122.195312 -100.484375 122.84375 -113.828125 C 123.5 -127.179688 124.492188 -139.441406 125.828125 -150.609375 C 127.160156 -161.785156 128.394531 -170.9375 129.53125 -178.0625 C 130.675781 -185.1875 131.046875 -188.863281 130.640625 -189.09375 C 129.691406 -187.550781 127.929688 -182.375 125.359375 -173.5625 C 122.785156 -164.757812 119.476562 -153.773438 115.4375 -140.609375 C 111.40625 -127.453125 106.789062 -113.238281 101.59375 -97.96875 C 96.394531 -82.695312 90.820312 -67.582031 84.875 -52.625 C 78.9375 -37.675781 72.734375 -24.164062 66.265625 -12.09375 C 59.796875 -0.0195312 53.335938 9.289062 46.890625 15.84375 C 42.992188 19.113281 39.78125 21.054688 37.25 21.671875 C 30.613281 23.253906 24.363281 21.566406 18.5 16.609375 C 12.644531 11.660156 8.921875 6.539062 7.328125 1.25 C 6.941406 -0.332031 6.617188 -2.007812 6.359375 -3.78125 C 6.097656 -5.550781 5.816406 -7.070312 5.515625 -8.34375 C 4.066406 -20.019531 3.601562 -34.1875 4.125 -50.84375 C 4.644531 -67.507812 5.984375 -85.285156 8.140625 -104.171875 C 10.304688 -123.066406 13.132812 -141.617188 16.625 -159.828125 C 20.125 -178.035156 24 -194.664062 28.25 -209.71875 C 32.507812 -224.769531 36.960938 -236.519531 41.609375 -244.96875 C 43.535156 -248.125 45.707031 -250.570312 48.125 -252.3125 C 50.539062 -254.0625 53.015625 -255.238281 55.546875 -255.84375 C 59.972656 -256.90625 64.191406 -256.742188 68.203125 -255.359375 C 72.210938 -253.972656 75.164062 -252.085938 77.0625 -249.703125 C 78.96875 -247.316406 78.648438 -245.15625 76.109375 -243.21875 C 71.972656 -239.550781 67.695312 -231.59375 63.28125 -219.34375 C 58.863281 -207.101562 54.773438 -192.429688 51.015625 -175.328125 C 47.253906 -158.222656 44 -140.40625 41.25 -121.875 C 38.5 -103.34375 36.410156 -85.882812 34.984375 -69.5 C 33.554688 -53.125 33.140625 -39.492188 33.734375 -28.609375 C 34.335938 -17.734375 36.171875 -11.488281 39.234375 -9.875 C 41.117188 -9 44.507812 -13.320312 49.40625 -22.84375 C 54.3125 -32.375 60.15625 -45.296875 66.9375 -61.609375 C 73.71875 -77.929688 80.9375 -95.941406 88.59375 -115.640625 C 96.25 -135.347656 103.660156 -155 110.828125 -174.59375 C 117.992188 -194.1875 124.515625 -211.953125 130.390625 -227.890625 C 136.265625 -243.835938 140.820312 -256.203125 144.0625 -264.984375 C 147.375 -272.128906 152.03125 -276.414062 158.03125 -277.84375 C 163.09375 -279.0625 169.070312 -277.820312 175.96875 -274.125 Z M 175.96875 -274.125 "/></g></g></g><g fill="#000000" fill-opacity="1"><g transform="translate(263.331536, 475.268009)"><g><path d="M 47.703125 -169.25 C 55.316406 -166.738281 60.726562 -162.273438 63.9375 -155.859375 C 67.144531 -149.441406 68.96875 -142.523438 69.40625 -135.109375 C 69.84375 -127.703125 69.515625 -120.691406 68.421875 -114.078125 C 67.972656 -108.972656 66.695312 -102.078125 64.59375 -93.390625 C 62.5 -84.703125 60.273438 -75.144531 57.921875 -64.71875 C 55.566406 -54.300781 53.394531 -44.175781 51.40625 -34.34375 C 49.414062 -24.507812 48.304688 -15.894531 48.078125 -8.5 C 51.003906 -8.863281 54.507812 -12.375 58.59375 -19.03125 C 62.675781 -25.6875 67.09375 -34.09375 71.84375 -44.25 C 76.601562 -54.414062 81.1875 -64.953125 85.59375 -75.859375 C 90 -86.765625 93.820312 -96.613281 97.0625 -105.40625 C 100.300781 -114.195312 102.679688 -120.28125 104.203125 -123.65625 C 105.566406 -124.976562 106.40625 -125.675781 106.71875 -125.75 C 107.039062 -125.832031 107.90625 -125.707031 109.3125 -125.375 C 112.144531 -124.71875 113.160156 -123.289062 112.359375 -121.09375 C 111.535156 -118.894531 109.664062 -113.769531 106.75 -105.71875 C 103.84375 -97.664062 100.300781 -88.046875 96.125 -76.859375 C 91.945312 -65.679688 87.375 -54.398438 82.40625 -43.015625 C 77.445312 -31.640625 72.457031 -21.425781 67.4375 -12.375 C 62.425781 -3.332031 57.695312 3.054688 53.25 6.796875 C 52.6875 7.273438 52.109375 7.664062 51.515625 7.96875 C 50.929688 8.28125 50.320312 8.515625 49.6875 8.671875 C 42.726562 10.328125 37.015625 8.097656 32.546875 1.984375 C 28.085938 -4.117188 25.210938 -9.863281 23.921875 -15.25 C 21.859375 -22.4375 21.644531 -31.320312 23.28125 -41.90625 C 24.925781 -52.488281 27.269531 -63.648438 30.3125 -75.390625 C 33.351562 -87.140625 36.304688 -98.535156 39.171875 -109.578125 C 42.046875 -120.628906 43.878906 -130.425781 44.671875 -138.96875 C 45.472656 -147.507812 44.273438 -153.566406 41.078125 -157.140625 C 40.609375 -157.710938 39.941406 -158.394531 39.078125 -159.1875 C 38.222656 -159.976562 37.367188 -160.78125 36.515625 -161.59375 C 29.953125 -144.3125 24.972656 -129.5 21.578125 -117.15625 C 18.179688 -104.820312 14.628906 -94.535156 10.921875 -86.296875 C 9.085938 -84.179688 7.535156 -82.972656 6.265625 -82.671875 C 4.691406 -82.296875 3.457031 -82.921875 2.5625 -84.546875 C 1.664062 -86.171875 1.34375 -87.179688 1.59375 -87.578125 C 3.9375 -93.140625 6.453125 -100.421875 9.140625 -109.421875 C 11.828125 -118.421875 14.679688 -128.125 17.703125 -138.53125 C 20.734375 -148.945312 23.640625 -158.828125 26.421875 -168.171875 C 18.972656 -172.742188 14.039062 -178.332031 11.625 -184.9375 C 9.21875 -191.539062 8.695312 -198.265625 10.0625 -205.109375 C 11.425781 -211.953125 13.90625 -217.972656 17.5 -223.171875 C 21.101562 -228.378906 25.398438 -231.75 30.390625 -233.28125 C 34.085938 -234.5 37.320312 -233.519531 40.09375 -230.34375 C 42.863281 -227.164062 45.035156 -223.335938 46.609375 -218.859375 C 48.179688 -214.390625 48.832031 -210.625 48.5625 -207.5625 C 47.289062 -197.570312 44.65625 -186.25 40.65625 -173.59375 C 41.832031 -172.875 43.082031 -172.171875 44.40625 -171.484375 C 45.738281 -170.804688 46.835938 -170.0625 47.703125 -169.25 Z M 33.703125 -213.03125 C 32.453125 -212.738281 30.941406 -210.707031 29.171875 -206.9375 C 27.398438 -203.175781 26.488281 -198.945312 26.4375 -194.25 C 26.382812 -189.5625 28.238281 -185.660156 32 -182.546875 C 32.96875 -185.453125 33.863281 -188.671875 34.6875 -192.203125 C 35.519531 -195.742188 36.023438 -199.207031 36.203125 -202.59375 C 37.066406 -210.164062 36.234375 -213.644531 33.703125 -213.03125 Z M 33.703125 -213.03125 "/></g></g></g><g fill="#000000" fill-opacity="1"><g transform="translate(360.967187, 451.907518)"><g><path d="M 68.28125 -171.171875 C 74.289062 -172.609375 80.367188 -171.304688 86.515625 -167.265625 C 92.660156 -163.234375 97.425781 -157.609375 100.8125 -150.390625 C 104.28125 -142.890625 105.515625 -132.5 104.515625 -119.21875 C 103.515625 -105.945312 101.164062 -92.019531 97.46875 -77.4375 C 93.78125 -62.863281 89.253906 -49.335938 83.890625 -36.859375 C 78.523438 -24.378906 73.09375 -14.976562 67.59375 -8.65625 C 63.601562 -4.351562 59.84375 -1.195312 56.3125 0.8125 C 52.78125 2.820312 48.332031 4.472656 42.96875 5.765625 C 33.675781 5.984375 26.648438 3.488281 21.890625 -1.71875 C 17.140625 -6.9375 13.898438 -13.847656 12.171875 -22.453125 C 12.160156 -21.117188 12.007812 -20 11.71875 -19.09375 C 11.425781 -18.1875 11.046875 -17.34375 10.578125 -16.5625 C 10.242188 -15.144531 10.015625 -14.003906 9.890625 -13.140625 C 9.765625 -12.273438 9.1875 -11.890625 8.15625 -11.984375 C 2.8125 -13.367188 -0.972656 -16.632812 -3.203125 -21.78125 C -5.441406 -26.925781 -6.9375 -31.75 -7.6875 -36.25 C -8.21875 -45.476562 -7.441406 -57.269531 -5.359375 -71.625 C -3.273438 -85.988281 -0.441406 -101.367188 3.140625 -117.765625 C 6.734375 -134.160156 10.71875 -150.316406 15.09375 -166.234375 C 19.476562 -182.148438 23.585938 -196.410156 27.421875 -209.015625 C 31.253906 -221.617188 34.503906 -231.414062 37.171875 -238.40625 C 38.867188 -242.488281 40.578125 -245.820312 42.296875 -248.40625 C 44.015625 -250.988281 46.929688 -252.773438 51.046875 -253.765625 C 55.785156 -254.890625 60.097656 -254.664062 63.984375 -253.09375 C 67.867188 -251.519531 70.84375 -249.554688 72.90625 -247.203125 C 74.96875 -244.859375 75.359375 -242.867188 74.078125 -241.234375 C 70.253906 -236.296875 65.894531 -227.976562 61 -216.28125 C 56.113281 -204.59375 50.929688 -190.992188 45.453125 -175.484375 C 39.972656 -159.984375 34.863281 -143.644531 30.125 -126.46875 C 25.382812 -109.289062 21.273438 -92.613281 17.796875 -76.4375 C 21.785156 -89.070312 26.171875 -101.804688 30.953125 -114.640625 C 35.734375 -127.484375 40.773438 -138.878906 46.078125 -148.828125 C 51.378906 -158.785156 56.800781 -165.429688 62.34375 -168.765625 C 63.226562 -169.304688 64.125 -169.765625 65.03125 -170.140625 C 65.9375 -170.523438 67.019531 -170.867188 68.28125 -171.171875 Z M 21.921875 -50.84375 C 21.640625 -47.78125 21.332031 -43.445312 21 -37.84375 C 20.675781 -32.25 20.878906 -26.863281 21.609375 -21.6875 C 22.347656 -16.519531 23.847656 -12.710938 26.109375 -10.265625 C 28.535156 -8.492188 30.539062 -7.800781 32.125 -8.1875 C 35.59375 -9.007812 38.988281 -12.242188 42.3125 -17.890625 C 45.644531 -23.535156 48.707031 -29.945312 51.5 -37.125 C 54.289062 -44.3125 56.625 -50.96875 58.5 -57.09375 C 60.375 -63.226562 61.597656 -67.195312 62.171875 -69 C 63.222656 -72.925781 64.738281 -78.796875 66.71875 -86.609375 C 68.695312 -94.429688 70.578125 -102.984375 72.359375 -112.265625 C 74.140625 -121.546875 75.285156 -130.007812 75.796875 -137.65625 C 76.316406 -145.300781 75.8125 -150.9375 74.28125 -154.5625 C 72.882812 -157.582031 71.394531 -158.898438 69.8125 -158.515625 C 66.644531 -157.765625 63.117188 -154 59.234375 -147.21875 C 55.347656 -140.445312 51.28125 -131.957031 47.03125 -121.75 C 42.789062 -111.550781 38.617188 -100.695312 34.515625 -89.1875 C 30.421875 -77.6875 26.628906 -66.675781 23.140625 -56.15625 C 22.972656 -55.445312 22.804688 -54.738281 22.640625 -54.03125 C 22.484375 -53.320312 22.242188 -52.257812 21.921875 -50.84375 Z M 21.921875 -50.84375 "/></g></g></g><g fill="#000000" fill-opacity="1"><g transform="translate(485.144608, 422.196593)"><g><path d="M 81.6875 -58.625 C 82.863281 -57.90625 83.925781 -57.660156 84.875 -57.890625 C 87.394531 -58.492188 90.316406 -61.28125 93.640625 -66.25 C 96.960938 -71.21875 100.4375 -77.304688 104.0625 -84.515625 C 107.6875 -91.734375 111.125 -98.988281 114.375 -106.28125 C 117.632812 -113.582031 120.316406 -119.820312 122.421875 -125 C 124.523438 -130.175781 125.660156 -133.125 125.828125 -133.84375 C 127.734375 -134.300781 129.210938 -134.398438 130.265625 -134.140625 C 131.328125 -133.890625 132.472656 -132.582031 133.703125 -130.21875 C 132.328125 -126.21875 129.859375 -119.445312 126.296875 -109.90625 C 122.734375 -100.363281 118.472656 -90.238281 113.515625 -79.53125 C 108.554688 -68.820312 103.0625 -59.320312 97.03125 -51.03125 C 91 -42.738281 84.820312 -37.835938 78.5 -36.328125 C 74.707031 -35.421875 70.851562 -36.164062 66.9375 -38.5625 C 61.144531 -41.84375 57.316406 -47.019531 55.453125 -54.09375 C 53.597656 -61.175781 52.390625 -67.992188 51.828125 -74.546875 C 51.910156 -75.554688 51.835938 -76.539062 51.609375 -77.5 C 48.691406 -68.769531 45.585938 -59.753906 42.296875 -50.453125 C 39.015625 -41.160156 35.660156 -32.84375 32.234375 -25.5 C 28.816406 -18.164062 25.117188 -13.019531 21.140625 -10.0625 C 20.828125 -9.988281 20.453125 -9.816406 20.015625 -9.546875 C 19.578125 -9.273438 19.046875 -9.066406 18.421875 -8.921875 C 17.148438 -8.617188 15.90625 -8.570312 14.6875 -8.78125 C 13.46875 -8.988281 11.992188 -9.21875 10.265625 -9.46875 C 1.847656 -11.132812 -3.875 -16.195312 -6.90625 -24.65625 C -9.9375 -33.125 -11.070312 -43.457031 -10.3125 -55.65625 C -9.5625 -67.863281 -7.484375 -80.46875 -4.078125 -93.46875 C -0.671875 -106.476562 3.367188 -118.554688 8.046875 -129.703125 C 12.722656 -140.859375 17.347656 -149.484375 21.921875 -155.578125 C 27.191406 -162.859375 32.351562 -167.101562 37.40625 -168.3125 C 39.925781 -168.914062 42.347656 -168.910156 44.671875 -168.296875 C 46.992188 -167.679688 48.976562 -166.738281 50.625 -165.46875 C 57.351562 -161.050781 61.40625 -155.25 62.78125 -148.0625 C 64.164062 -140.882812 64.742188 -133.59375 64.515625 -126.1875 C 66.816406 -127.738281 68.757812 -128.703125 70.34375 -129.078125 C 75.707031 -130.359375 81.25 -128.847656 86.96875 -124.546875 C 88.925781 -123.335938 89.976562 -122.414062 90.125 -121.78125 C 90.28125 -121.144531 89.5625 -119.972656 87.96875 -118.265625 C 84.132812 -113.335938 81.734375 -106.25 80.765625 -97 C 79.804688 -87.75 79.535156 -80.164062 79.953125 -74.25 C 79.484375 -66.445312 80.0625 -61.238281 81.6875 -58.625 Z M 42.984375 -134.578125 C 39.441406 -128.378906 35.960938 -119.859375 32.546875 -109.015625 C 29.128906 -98.179688 26.195312 -87.039062 23.75 -75.59375 C 21.3125 -64.15625 19.734375 -54.335938 19.015625 -46.140625 C 18.304688 -37.941406 18.929688 -33.25 20.890625 -32.0625 C 23.410156 -32.664062 26.367188 -37.046875 29.765625 -45.203125 C 33.171875 -53.367188 36.957031 -63.046875 41.125 -74.234375 C 45.289062 -85.421875 49.273438 -95.640625 53.078125 -104.890625 C 53.734375 -107.734375 54.425781 -110.410156 55.15625 -112.921875 C 55.894531 -115.441406 57.179688 -117.753906 59.015625 -119.859375 C 57.210938 -135.796875 54.410156 -143.304688 50.609375 -142.390625 C 49.359375 -142.097656 48.148438 -141.226562 46.984375 -139.78125 C 45.828125 -138.332031 44.492188 -136.597656 42.984375 -134.578125 Z M 42.984375 -134.578125 "/></g></g></g><g fill="#000000" fill-opacity="1"><g transform="translate(601.264702, 394.413479)"><g><path d="M 94.90625 -162.53125 C 99.851562 -160.03125 101.816406 -155.320312 100.796875 -148.40625 L 100.671875 -146.859375 C 100.253906 -144.421875 99.132812 -139.304688 97.3125 -131.515625 C 95.5 -123.734375 93.757812 -114.960938 92.09375 -105.203125 C 90.425781 -95.453125 89.070312 -86.109375 88.03125 -77.171875 C 86.988281 -68.242188 86.992188 -61.234375 88.046875 -56.140625 C 89.097656 -51.046875 91.640625 -49.148438 95.671875 -50.453125 C 101.765625 -52.910156 107.3125 -57.992188 112.3125 -65.703125 C 117.320312 -73.421875 121.921875 -81.789062 126.109375 -90.8125 C 130.296875 -99.832031 133.835938 -107.359375 136.734375 -113.390625 L 137.09375 -113.984375 L 137.6875 -115.640625 C 139.957031 -121.523438 142.101562 -126.546875 144.125 -130.703125 C 146.144531 -134.859375 147.234375 -137.285156 147.390625 -137.984375 C 147.390625 -137.984375 147.445312 -138.082031 147.5625 -138.28125 C 147.6875 -138.488281 147.910156 -138.628906 148.234375 -138.703125 C 150.441406 -139.234375 152.429688 -137.867188 154.203125 -134.609375 C 153.878906 -133.191406 153.273438 -131.539062 152.390625 -129.65625 C 151.503906 -127.78125 150.691406 -125.582031 149.953125 -123.0625 C 147.691406 -117.1875 144.382812 -109.378906 140.03125 -99.640625 C 135.675781 -89.910156 130.6875 -80.03125 125.0625 -70 C 119.445312 -59.976562 113.347656 -51.257812 106.765625 -43.84375 C 100.191406 -36.425781 93.585938 -31.921875 86.953125 -30.328125 C 85.367188 -29.953125 84.070312 -29.8125 83.0625 -29.90625 C 76.125 -29.570312 71.019531 -32.023438 67.75 -37.265625 C 64.488281 -42.503906 62.40625 -49.101562 61.5 -57.0625 C 60.601562 -65.03125 60.578125 -73.539062 61.421875 -82.59375 C 62.265625 -91.644531 63.453125 -99.941406 64.984375 -107.484375 C 66.515625 -115.035156 67.8125 -120.78125 68.875 -124.71875 C 59.945312 -106.207031 51.347656 -87.695312 43.078125 -69.1875 C 34.816406 -50.675781 27.160156 -31.722656 20.109375 -12.328125 C 19.046875 -8.398438 17.40625 -6.171875 15.1875 -5.640625 C 14.550781 -5.492188 13.601562 -5.601562 12.34375 -5.96875 C 11.09375 -6.332031 9.800781 -6.519531 8.46875 -6.53125 C 0.6875 -8.351562 -4.484375 -11.460938 -7.046875 -15.859375 C -9.609375 -20.253906 -10.65625 -26.347656 -10.1875 -34.140625 C -8.976562 -44.460938 -7.863281 -53.082031 -6.84375 -60 C -5.832031 -66.925781 -4.664062 -73.21875 -3.34375 -78.875 C -2.019531 -84.539062 -0.4375 -90.851562 1.40625 -97.8125 C 3.257812 -104.769531 5.335938 -113.195312 7.640625 -123.09375 C 8.378906 -126.945312 9.582031 -129.570312 11.25 -130.96875 C 12.914062 -132.375 15.492188 -133.492188 18.984375 -134.328125 C 25.296875 -135.835938 31.195312 -134.910156 36.6875 -131.546875 L 37.84375 -130.828125 C 40.28125 -129.066406 41.425781 -127.421875 41.28125 -125.890625 C 41.144531 -124.359375 40.597656 -122.132812 39.640625 -119.21875 C 37.984375 -112.144531 36.5625 -106.546875 35.375 -102.421875 C 34.195312 -98.296875 33.117188 -94.78125 32.140625 -91.875 C 31.171875 -88.976562 30.171875 -85.484375 29.140625 -81.390625 C 28.109375 -77.296875 26.613281 -71.675781 24.65625 -64.53125 C 23.738281 -59.96875 22.566406 -55.425781 21.140625 -50.90625 C 19.710938 -46.382812 18.265625 -41.609375 16.796875 -36.578125 C 17.847656 -39.171875 20.273438 -45.097656 24.078125 -54.359375 C 27.878906 -63.628906 32.515625 -74.265625 37.984375 -86.265625 C 43.460938 -98.273438 48.882812 -110.179688 54.25 -121.984375 C 59.613281 -133.785156 64.328125 -143.765625 68.390625 -151.921875 C 72.460938 -160.078125 75.085938 -164.457031 76.265625 -165.0625 C 83.222656 -166.726562 89.4375 -165.882812 94.90625 -162.53125 Z M 94.90625 -162.53125 "/></g></g></g></g></g><g clip-path="url(#52a5f855da)"><g clip-path="url(#4b1539f36c)"><g clip-path="url(#0fdd512fc3)"><path fill="#000000" d="M 354.863281 712.4375 L 402.042969 756.535156 C 402.042969 756.535156 424.09375 672.867188 503.617188 631.921875 C 503.617188 631.921875 431.074219 659.824219 394.882812 727.144531 L 374.960938 708.613281 L 367.695312 701.992188 L 372.117188 691.449219 C 357.371094 693.09375 342.792969 696.105469 329.140625 682.65625 C 315.492188 669.210938 323.246094 625.128906 352.753906 609.675781 C 354.035156 608.972656 355.394531 608.378906 356.695312 607.792969 C 357.359375 621.796875 358.496094 640.035156 358.097656 641.988281 C 366.675781 604.21875 407.140625 464.328125 464.992188 549.9375 C 464.992188 549.9375 465.191406 546.4375 464.972656 541.179688 C 501.953125 507.308594 518.117188 537.0625 523.289062 564.414062 C 448.296875 569.917969 408.941406 653.773438 403.632812 665.925781 L 403.585938 665.992188 L 403.449219 666.261719 C 403.144531 666.980469 402.96875 667.375 402.96875 667.375 L 406.683594 662.367188 C 447.324219 608.40625 494.203125 592.085938 514.742188 587.273438 L 545.347656 617.871094 C 545.347656 617.871094 446.859375 659.285156 423.058594 752.371094 C 423.058594 752.371094 478.414062 657.355469 581.363281 627.960938 L 538.6875 578.480469 C 543.65625 499.953125 490.425781 495.265625 463.324219 514.507812 C 462.121094 515.320312 461.058594 515.867188 460.210938 516.253906 C 455.1875 503.109375 445.027344 491.929688 424.789062 495.292969 C 421.476562 495.851562 417.917969 496.757812 414.015625 498.148438 C 366.976562 514.984375 359.769531 565.175781 356.261719 591.929688 C 356.234375 592.117188 356.226562 592.421875 356.214844 592.726562 C 354.019531 593.402344 352.292969 594 351.367188 594.277344 C 346.449219 595.777344 341.671875 597.742188 336.972656 600.179688 C 301.261719 618.871094 295.285156 664.839844 308.464844 688.464844 C 320.003906 709.207031 335.246094 711.558594 354.734375 712.398438 Z M 354.863281 712.4375 " fill-opacity="1" fill-rule="evenodd"/></g></g></g><g transform="matrix(1, 0, 0, 1, 947, 529)"><g clip-path="url(#28494a4b17)"><g fill="#000000" fill-opacity="1"><g transform="translate(31.014772, 105.51919)"><g><path d="M 6.3125 -16.234375 L 4.515625 -10.265625 L 7.765625 -4.0625 L 3.25 -1.703125 L -9.4375 -25.984375 L -4.921875 -28.34375 L 1.578125 -15.890625 L 7.078125 -34.609375 L 12.140625 -37.265625 L 7.625 -21.078125 L 25.453125 -13.296875 L 20.171875 -10.546875 Z M 6.3125 -16.234375 "/></g></g></g><g fill="#000000" fill-opacity="1"><g transform="translate(68.989453, 89.404903)"><g><path d="M -0.875 -27.625 L 4.140625 -28.453125 L 8.640625 -1.4375 L 3.625 -0.609375 Z M -0.875 -27.625 "/></g></g></g><g fill="#000000" fill-opacity="1"><g transform="translate(94.439398, 86.309532)"><g><path d="M 12.15625 -21.671875 L 3.15625 -22.859375 L 3.71875 -27.140625 L 26.75 -24.109375 L 26.1875 -19.828125 L 17.1875 -21.015625 L 14.1875 1.859375 L 9.15625 1.203125 Z M 12.15625 -21.671875 "/></g></g></g><g fill="#000000" fill-opacity="1"><g transform="translate(129.939555, 92.82534)"><g><path d="M 14.203125 8.109375 C 11.765625 6.796875 9.851562 5.078125 8.46875 2.953125 C 7.09375 0.828125 6.351562 -1.472656 6.25 -3.953125 C 6.15625 -6.441406 6.742188 -8.867188 8.015625 -11.234375 C 9.296875 -13.597656 11.003906 -15.414062 13.140625 -16.6875 C 15.285156 -17.96875 17.625 -18.613281 20.15625 -18.625 C 22.695312 -18.632812 25.179688 -17.984375 27.609375 -16.671875 C 29.585938 -15.597656 31.207031 -14.28125 32.46875 -12.71875 C 33.726562 -11.15625 34.566406 -9.410156 34.984375 -7.484375 L 30.609375 -6.328125 C 29.890625 -9.148438 28.253906 -11.25 25.703125 -12.625 C 24.054688 -13.507812 22.378906 -13.945312 20.671875 -13.9375 C 18.972656 -13.925781 17.410156 -13.472656 15.984375 -12.578125 C 14.554688 -11.691406 13.398438 -10.429688 12.515625 -8.796875 C 11.640625 -7.171875 11.222656 -5.515625 11.265625 -3.828125 C 11.304688 -2.148438 11.785156 -0.597656 12.703125 0.828125 C 13.617188 2.265625 14.898438 3.425781 16.546875 4.3125 C 19.097656 5.6875 21.757812 5.894531 24.53125 4.9375 L 25.953125 9.25 C 24.117188 9.945312 22.195312 10.195312 20.1875 10 C 18.175781 9.800781 16.179688 9.171875 14.203125 8.109375 Z M 14.203125 8.109375 "/></g></g></g><g fill="#000000" fill-opacity="1"><g transform="translate(164.687815, 114.014262)"><g><path d="M 38.90625 4.71875 L 17.53125 21.859375 L 14.34375 17.875 L 23.5 10.53125 L 14.640625 -0.5 L 5.484375 6.84375 L 2.296875 2.859375 L 23.671875 -14.28125 L 26.859375 -10.296875 L 18.03125 -3.21875 L 26.890625 7.8125 L 35.71875 0.734375 Z M 38.90625 4.71875 "/></g></g></g><g fill="#000000" fill-opacity="1"><g transform="translate(189.792425, 150.016419)"><g><path d="M 10.921875 22.03125 L 6.828125 23.234375 L 1.03125 3.515625 L 27.3125 -4.203125 L 32.953125 15 L 28.859375 16.203125 L 24.65625 1.890625 L 17.828125 3.90625 L 21.546875 16.59375 L 17.515625 17.765625 L 13.796875 5.078125 L 6.5625 7.203125 Z M 10.921875 22.03125 "/></g></g></g><g fill="#000000" fill-opacity="1"><g transform="translate(198.8324, 187.511778)"><g><path d="M 24.3125 30.71875 L -2.921875 27.859375 L -2.484375 23.703125 L 17.53125 10.609375 L -0.90625 8.671875 L -0.390625 3.65625 L 26.84375 6.515625 L 26.40625 10.671875 L 6.390625 23.765625 L 24.828125 25.703125 Z M 24.3125 30.71875 "/></g></g></g></g></g></svg>